<svg width="47" height="76" viewBox="0 0 47 76" fill="none" xmlns="http://www.w3.org/2000/svg">
<path fill-rule="evenodd" clip-rule="evenodd" d="M36.9924 48.087C35.7415 46.5218 33.865 43.3913 32.6141 40.4348C32.6141 40.4348 30.2015 34.7826 29.5761 29.3044C28.9506 23.8261 29.2187 18.2609 31.0951 12C32.7928 6.34783 36.0989 1.30435 36.9924 0C37.0384 0.0703517 37.1033 0.166575 37.1846 0.287286C38.2095 1.8078 41.853 7.2137 43.4259 13.7391C45.0342 20.7826 45.0342 25.1304 44.3194 30.087C42.9791 38.9565 38.7795 45.8261 36.9924 48.087ZM34.7586 37.6522C34.9373 42 36.1882 44.8696 36.9924 46.3478C37.886 44.7826 39.3156 41.4783 39.1369 37.3044C38.9582 32.9565 37.4392 29.8261 36.9924 29.0435C36.4563 29.7391 34.7586 33.3913 34.7586 37.6522ZM32.7034 13.8261C32.2567 15.5652 31.3631 19.3044 31.1844 22.9565C31.0057 27.3913 31.6312 31.8261 31.8993 32.9565C31.8993 31.4783 31.9886 26.6087 32.8822 22.5217C33.865 18.5217 35.6521 13.8261 37.0818 11.4783C38.6008 14 40.5666 19.3913 41.2814 22.6087C41.9962 25.8261 42.3536 29.9131 42.1749 32.8696C42.6217 31.2174 42.8898 28.3478 42.9791 25.6522C42.9791 22.9565 42.7111 18.4348 41.3707 13.6522C40.051 8.94285 37.4317 4.48647 37.0105 3.76986L36.9924 3.73913C36.635 4.34783 34.4905 8.08696 32.7034 13.8261Z" fill="white"/>
<path d="M27.1635 58V49.7391H47V67.6522C41.9962 72.7826 35.0266 76 27.1635 76C12.1521 76 0 64.2609 0 49.7391C0 35.2174 12.1521 23.3913 27.2529 23.3913V43.1304C23.3213 43.1304 19.3897 44.6087 16.4411 47.4783C15.7262 48.1739 15.1008 48.8696 14.5646 49.6522C10.5437 55.3913 11.1692 63.3043 16.4411 68.3478C19.4791 71.2174 23.3213 72.6956 27.2529 72.6956C31.0951 72.6956 35.0266 71.3043 37.9753 68.4348C40.924 65.5652 40.924 60.8696 37.9753 58C34.9373 55.1304 30.1122 55.1304 27.1635 58Z" fill="white"/>
</svg>
