<svg width="60" height="60" viewBox="0 0 60 60" fill="none" xmlns="http://www.w3.org/2000/svg">
<path fill-rule="evenodd" clip-rule="evenodd" d="M0 30C0 13.4711 13.471 0 29.9998 0C46.6113 0 60.0823 13.4711 59.9996 30C59.9996 46.5289 46.5286 60 29.9998 60C13.471 60 0 46.5289 0 30ZM3.96692 30C3.96692 44.3802 15.7024 56.1157 29.9998 56.1157C44.3799 56.1157 56.1154 44.3802 56.0327 30C56.0327 15.7025 44.3799 3.96694 29.9998 3.96694C15.7024 3.96694 3.96692 15.7025 3.96692 30ZM35.4544 7.68591C42.7271 9.50409 48.4295 14.6281 51.3221 21.2396H39.4213C38.7602 15.7024 37.4378 10.8264 35.4544 7.68591ZM24.7105 7.68591C17.6031 9.42144 11.6527 14.5454 8.84281 21.2396H20.7436C21.4047 15.7024 22.727 10.8264 24.7105 7.68591ZM30.2477 7.0249C32.2312 7.0249 35.1237 12.3968 36.1981 21.2398H24.2973C25.3717 12.3142 28.2643 7.0249 30.2477 7.0249ZM20.3305 30V30C20.3305 28.0165 20.3305 26.281 20.5784 24.2976H7.93389C7.52067 26.0331 7.27273 28.0166 7.27273 30C7.27273 31.9835 7.52067 33.967 7.93389 35.7025H20.5784C20.3305 33.967 20.3305 31.9835 20.3305 30.0001V30ZM23.7189 35.7025C23.471 33.967 23.471 31.9835 23.471 30C23.471 28.0166 23.471 26.0331 23.6363 24.2976H36.5288C36.7767 26.0331 36.7767 28.0166 36.7767 30C36.7767 31.9835 36.7767 33.967 36.5288 35.7025H23.7189ZM35.3718 52.3968C42.4792 50.6612 48.4295 45.5372 51.2394 38.843H39.4213C38.7602 44.3802 37.3552 49.2563 35.3718 52.3968ZM39.7518 24.2976H52.3963C52.8095 26.0331 53.0575 28.0166 53.0575 30C53.0575 31.9835 52.8095 33.967 52.3963 35.7025H39.7518C39.9997 33.719 39.9997 31.9835 39.9997 30C39.9997 28.0166 39.9997 26.281 39.7518 24.2976ZM8.84281 38.843C11.7354 45.4546 17.4378 50.5786 24.7105 52.3968C22.727 49.2563 21.4047 44.3802 20.7436 38.843H8.84281ZM30.0826 53.0579C28.0991 53.0579 25.2066 47.686 24.1322 38.843H36.033C34.9586 47.7686 32.0661 53.0579 30.0826 53.0579Z" fill="white"/>
</svg>
